PathFileType	4	(X/Y/Z)	c:/Users/goper/Files/vsCode/490R/osim_files/C12/C12_Slow_02.trc
DataRate	CameraRate	NumFrames	NumMarkers	Units                	OrigDataRate	OrigDataStartFrame	OrigNumFrames
120.00	120.00	9	36	mm	120.0	564	1502
                Frame#	Time	LPSIS			LASIS			LTH1			LTH2			LTH3			LTH4			LLFE			LMFE			LSH1			LSH2			LSH3			LSH4			LLMAL			LMMAL			LCAL			LMTP5			LTOE			LMTP1			RPSIS			RASIS			RTH1			RTH2			RTH3			RTH4			RLFE			RMFE			RSH1			RSH2			RSH3			RSH4			RLMAL			RMMAL			RCAL			RMTP1			RTOE			RMTP5		
		X1	Y1	Z1	X2	Y2	Z2	X3	Y3	Z3	X4	Y4	Z4	X5	Y5	Z5	X6	Y6	Z6	X7	Y7	Z7	X8	Y8	Z8	X9	Y9	Z9	X10	Y10	Z10	X11	Y11	Z11	X12	Y12	Z12	X13	Y13	Z13	X14	Y14	Z14	X15	Y15	Z15	X16	Y16	Z16	X17	Y17	Z17	X18	Y18	Z18	X19	Y19	Z19	X20	Y20	Z20	X21	Y21	Z21	X22	Y22	Z22	X23	Y23	Z23	X24	Y24	Z24	X25	Y25	Z25	X26	Y26	Z26	X27	Y27	Z27	X28	Y28	Z28	X29	Y29	Z29	X30	Y30	Z30	X31	Y31	Z31	X32	Y32	Z32	X33	Y33	Z33	X34	Y34	Z34	X35	Y35	Z35	X36	Y36	Z36

564	4.69167	979.63641	1041.51929	382.93909	810.10822	990.97394	468.97025	986.05841	739.75507	501.06952	994.03772	696.56384	499.47864	927.52893	725.20154	514.55762	942.39294	683.33167	510.22339	1016.24323	516.28802	470.79364	1002.52960	503.82812	344.92032	1114.91565	462.21756	480.66104	1139.28430	421.91312	487.38947	1065.42407	427.19513	478.98038	1096.42920	391.01614	482.85727	1278.37354	155.84398	439.54565	1263.37903	158.63307	363.48773	1348.05664	161.86389	400.07095	1193.83154	32.42115	451.76471	1141.61694	58.25579	377.23849	1171.85669	38.28370	338.86972	981.24860	1030.00830	267.87094	793.54730	997.85498	210.18816	802.40607	717.55902	156.68253	782.44244	678.02142	168.67542	726.59210	771.90924	149.68677	729.02600	697.50189	172.74075	711.14001	516.29486	212.75154	726.86456	516.64935	346.91470	738.04779	406.73306	193.53137	721.84387	365.65695	188.00578	678.16077	421.49872	200.94852	671.82697	379.58191	194.18315	617.55377	94.72571	229.86783	608.62390	109.33531	312.76581	683.26410	49.96470	267.42786	472.99466	66.13199	319.98410	433.93100	99.24565	291.82773	459.01218	63.62225	216.81091
565	4.70000	967.22614	1041.47827	381.78201	797.55621	991.03119	467.87231	972.60052	739.48090	500.39240	981.12054	696.57056	499.59607	915.00830	726.40283	514.02429	928.75720	683.22656	510.18634	1002.01636	515.53619	472.55005	988.62396	502.47888	346.18698	1102.31165	463.96576	481.69092	1127.46350	423.92062	488.31671	1053.96252	427.63873	480.86752	1085.40869	392.40945	484.42752	1272.50415	160.80699	440.94736	1256.19409	162.88739	365.20456	1340.71655	169.64130	400.70480	1193.31787	32.81822	451.82596	1142.22693	58.10918	377.18155	1170.80444	38.57931	338.90768	969.43909	1030.54370	266.22226	780.97791	998.10431	209.28493	791.29938	718.14862	156.82587	771.92493	678.21613	169.33733	717.02081	770.58276	149.67877	716.98975	698.94745	172.95410	699.68243	517.06067	212.06284	718.93237	517.25421	346.16928	726.50049	408.84509	192.61148	711.46094	368.40427	185.81931	667.09161	422.77243	200.58839	660.96460	380.45566	193.71927	613.90906	93.95415	229.64790	604.34674	108.25216	312.62576	681.56348	51.33794	267.32431	470.52258	61.23816	319.52802	430.38046	92.63362	290.97925	456.27359	57.65459	216.26976
566	4.70833	954.87268	1041.65784	380.62640	784.68109	991.22223	466.89120	958.29657	739.10724	499.43576	966.79755	696.18744	499.58948	901.06738	726.40692	513.81818	914.76117	683.29816	510.30582	986.67737	514.98987	474.43008	973.87793	501.23416	347.90189	1088.75049	465.53754	482.75522	1114.76538	426.30133	489.42416	1040.93005	428.39444	482.87729	1073.94421	393.74008	486.62848	1265.39795	165.64487	442.47382	1248.03101	167.54907	366.83875	1331.63147	177.52493	401.51044	1192.42664	33.22215	451.90350	1141.50049	58.67469	377.45779	1169.53186	39.05076	338.94202	957.10437	1030.91199	264.91006	768.48108	998.55005	208.90086	780.02423	718.66840	156.55574	761.37744	678.79242	169.59262	707.58551	769.27722	149.64391	705.24634	700.41528	173.00229	687.37787	518.34741	211.78500	709.91278	518.49988	344.96539	715.52045	410.74084	190.96309	701.07312	370.02548	184.46069	656.26080	423.82568	199.75322	650.60223	381.03296	193.21181	610.98492	93.43636	229.45941	601.00391	107.57248	312.44974	680.19904	52.56757	267.14984	468.69376	57.12700	319.23743	427.49652	86.66840	290.23334	454.83463	51.44509	216.58629
567	4.71667	942.88342	1042.27124	379.27783	772.71271	991.86664	465.55759	944.64368	738.97363	499.54379	952.42029	695.83606	499.76050	886.56757	726.29901	513.37048	900.44269	683.44141	510.69443	970.46063	514.35809	476.69617	958.11768	499.82809	350.24933	1074.79736	467.51514	483.95151	1102.34680	429.27560	490.40555	1027.52197	429.02203	485.28967	1061.23181	395.41696	488.86652	1257.36707	170.69025	443.98090	1238.83936	171.44502	370.09497	1322.76721	186.60863	402.48132	1191.34094	33.98724	451.84299	1139.97766	59.29767	378.08508	1168.01575	39.89236	338.99725	945.24756	1031.79810	263.52643	756.92908	999.29108	208.34799	768.69714	719.89178	155.64716	750.38550	679.91376	169.25917	698.29199	767.99738	149.58046	693.79529	701.87994	172.86763	674.83325	520.17554	211.73875	699.78143	520.23810	343.66803	704.65192	411.89102	189.39030	691.29498	371.23676	183.09933	644.35193	422.96469	201.20808	640.84320	381.16568	192.61905	608.67834	93.09451	229.33965	598.56415	107.63762	312.57239	679.12506	53.46784	266.91409	467.31335	53.91268	319.55301	425.31305	81.86491	290.63980	453.26419	47.73578	216.32938
568	4.72500	930.44427	1042.87219	378.17725	760.47577	992.72760	464.12891	930.28491	738.66339	499.39709	937.26813	695.19061	499.56812	872.44476	726.76703	513.50452	885.90497	683.46454	511.09460	954.39215	514.44238	479.51428	941.61230	498.35715	352.97287	1059.66809	469.17169	485.43768	1087.71008	431.18546	491.89078	1013.38733	429.71228	488.10452	1048.05518	396.97510	491.43765	1248.39270	176.05646	445.48059	1229.24524	176.53470	371.96802	1311.50513	195.16805	403.96802	1189.85608	35.04789	451.75674	1138.19043	59.92630	378.35477	1166.07568	41.30695	339.13620	934.14020	1033.38647	261.99792	745.56934	1000.66962	207.23338	757.25183	721.60760	154.87837	738.91162	681.70795	168.48404	689.14600	766.74768	149.48666	682.63635	703.31598	172.53246	662.41132	522.01068	211.83391	688.85590	523.30200	342.97754	694.76471	413.39621	187.84525	682.25574	372.44797	181.74217	634.44366	423.22214	200.43456	631.80481	381.44470	191.87849	606.92511	92.93480	229.38956	597.07361	107.46916	312.61411	678.43274	54.13369	266.79684	466.58154	51.51014	320.19046	424.06076	78.61495	291.62781	452.09750	45.44043	216.64427
569	4.73333	918.54193	1043.91736	376.96597	748.04553	993.78400	462.76556	916.15613	738.37567	499.49609	922.40961	694.75104	500.48505	857.73291	726.94781	513.78821	870.50000	683.57599	511.61838	937.19446	513.62561	482.30029	923.31244	496.57748	356.39865	1044.38110	470.61853	487.08188	1073.10291	433.41809	493.55273	998.68365	430.19257	491.12650	1034.36389	398.52701	494.35773	1238.48792	181.73286	446.88516	1219.14441	181.82819	373.39389	1300.17029	204.82544	405.37231	1188.23010	36.99221	451.78226	1136.17944	60.61129	378.76526	1163.87988	43.51289	339.27530	922.74597	1034.89478	260.77985	734.35980	1002.28448	206.33612	745.45367	723.56903	153.50514	726.77802	684.16486	167.48871	680.15344	765.53278	149.36087	671.76892	704.69769	171.97906	650.16974	523.67896	211.92487	676.02380	525.22937	342.99985	685.40375	415.01831	186.34773	673.87976	373.86221	180.31467	625.32306	423.82358	199.46904	623.61438	381.87900	191.04932	606.03467	93.03905	229.54176	596.22998	107.43002	312.66022	677.96558	54.88203	266.70755	466.00998	50.04648	320.71411	423.36972	76.78297	292.21182	451.50369	43.97629	216.87930
570	4.74167	906.90344	1045.14587	375.90897	736.75549	995.19043	460.85410	900.95563	737.59473	499.65640	907.45508	694.13928	501.03375	842.47809	726.86884	513.62744	855.01471	683.55377	512.23230	919.79395	512.93018	484.95471	904.45398	494.60776	359.56180	1028.89343	472.63528	488.43704	1058.05713	435.66986	495.28378	983.28314	430.60391	494.01105	1019.62463	399.68619	497.20389	1227.82324	187.80521	448.20636	1208.10046	187.41470	374.64285	1288.62207	215.34521	406.64035	1186.30847	39.92704	451.92923	1132.71375	61.03365	380.23123	1160.81128	46.51842	339.66150	911.21973	1036.36072	260.01270	723.34766	1004.33545	205.20702	733.73962	725.89807	152.14761	713.98694	686.39429	165.03168	671.32007	764.35712	149.20131	661.19269	705.99982	171.18982	639.07019	525.21149	211.35291	663.27228	526.75848	343.06744	676.95557	417.02414	184.52899	666.25482	375.56799	178.76302	616.33020	423.47028	200.37457	615.95093	382.54517	190.17912	605.51508	93.24173	229.53136	595.55670	107.62504	312.41977	677.60651	55.61597	266.53162	465.47589	49.23050	320.93329	422.77325	75.27726	292.22495	451.01947	43.25470	216.37270
571	4.75000	895.56934	1046.47913	375.08630	725.40253	996.71063	459.13074	886.03839	736.77606	499.98666	891.96045	693.42163	501.80374	827.36499	726.96112	513.87268	839.41785	683.50433	512.80493	902.18628	512.08875	487.11542	884.84009	492.16534	362.49170	1011.40717	473.18488	490.22504	1041.64062	438.52905	497.11288	967.46149	430.73245	496.80209	1007.05414	400.03229	499.33688	1216.72668	194.61745	449.32797	1196.71838	193.27870	375.56372	1274.67786	225.32841	408.18472	1183.75562	43.54605	452.15411	1128.17200	62.41890	380.99557	1156.97668	50.40154	340.42429	900.51031	1038.61292	259.26996	711.96954	1006.51605	204.26591	722.19165	728.16156	150.37331	702.38342	689.73901	165.58102	662.65167	763.22534	149.00627	650.90729	707.19684	170.14702	629.57507	526.51599	210.03505	650.78864	528.57916	343.06641	669.76544	419.14246	181.79317	658.72321	376.82001	177.56584	608.14075	423.91553	199.44629	608.16846	382.12961	190.64978	604.82617	93.38561	229.30150	594.85077	108.07568	311.98309	677.28711	56.34484	266.30521	465.06769	48.54383	320.95969	422.13849	73.81621	291.88559	450.51578	42.14158	215.92256
572	4.75833	884.46411	1047.83655	374.59470	714.65961	997.93250	457.48917	871.02008	735.79602	500.45374	876.18420	692.30756	502.48489	812.17627	727.05670	514.20227	823.55060	683.36523	513.52368	884.25323	511.03754	488.80695	864.67480	489.38614	365.29526	992.92346	474.69336	491.37543	1024.49561	439.84525	498.75217	950.98779	430.80182	499.45856	988.84442	401.75873	501.75983	1204.92615	201.41449	450.57483	1184.44275	199.54527	376.45972	1260.64954	235.90436	409.66812	1180.49097	48.46370	452.46512	1122.16980	63.65652	382.03653	1152.56873	55.10537	341.26151	889.48999	1040.66956	258.98853	701.76593	1009.03131	202.63943	711.18903	730.28790	148.55424	691.24786	691.92755	163.98195	654.15405	762.14215	148.77403	640.91217	708.26318	168.83298	619.97253	527.72113	208.98848	640.88635	529.58093	341.04892	662.00226	420.81622	180.64146	652.26282	378.54376	176.05577	600.66492	424.49292	198.45529	601.30139	382.74875	189.76332	604.10321	93.44878	228.94968	594.12451	108.45912	311.48615	676.93054	56.90933	266.01837	464.77185	47.80994	321.10950	421.71365	72.39836	291.90756	450.02777	41.27377	215.95883
